<svg xmlns="http://www.w3.org/2000/svg" width="167.0869141pt" height="242.6669922pt" viewBox="0 0 167.0869141 242.6669922">
  <path d="M166.8369141,235.5478516c0,3.7773438-3.0869141,6.8691406-6.8710938,6.8691406H7.1108398c-3.7749023,0-6.8608398-3.0917969-6.8608398-6.8691406V7.1201172C0.25,3.3427734,3.3359375,0.25,7.1108398,0.25h152.8549805    c3.7841797,0,6.8710938,3.0927734,6.8710938,6.8701172v228.4277344z" fill="#FFFFFF" stroke="#B9C2CC" stroke-width="1" />
  <clipPath id="p-hearts-jack"><rect x="14" y="62" width="139" height="119" /></clipPath>
  <rect x="14" y="62" width="139" height="119" fill="none" stroke="#B9C2CC" stroke-width="1" />
  <g clip-path="url(#p-hearts-jack)">
    
    <g id="half-hearts">
      <path d="M14,121.5 L14,105 C34,96.5 59,92.5 83.543,92.5 C108,92.5 133,96.5 153,105 L153,121.5 Z" fill="#15191E" />
      <path d="M14,105 C34,96.5 59,92.5 83.543,92.5 C108,92.5 133,96.5 153,105" fill="none" stroke="#DF0000" stroke-width="2.4" />
      <rect x="34" y="76" width="5" height="45.5" fill="#15191E" />
      <path d="M36.5,79 C30,79 27.5,84 29,89 C34.5,88 37,84 36.5,79 Z" fill="#15191E" />
      <path d="M36.5,79 C43,79 45.5,84 44,89 C38.5,88 36,84 36.5,79 Z" fill="#15191E" />
      <path transform="translate(36.5 73) scale(1.15)" d="M 3.676,-9 C 0.433,-9 0,-5.523 0,-5.523 0,-5.523 -0.433,-9 -3.676,-9 -5.946,-9 -8,-7.441 -8,-4.5 -8,-0.614 -1.4208493,3.2938141 0,9 1.35201,3.2985969 8,-0.614 8,-4.5 8,-7.441 5.946,-9 3.676,-9 z" fill="#DF0000" />
      <circle cx="83.543" cy="80" r="13.5" fill="#FFFFFF" stroke="#15191E" stroke-width="2.4" />
      <circle cx="78.6" cy="78.5" r="1.7" fill="#15191E" />
      <circle cx="88.5" cy="78.5" r="1.7" fill="#15191E" />
      <path d="M67,74 C67.5,66 74.5,62.5 83.543,62.5 C92.5,62.5 99.5,66 100,74 Z" fill="#C99A2E" stroke="#15191E" stroke-width="1" />
      <path d="M66,74 L101,74" stroke="#15191E" stroke-width="2.4" />
      <path d="M99,71 C107,66 110,68 113.5,62.5" fill="none" stroke="#DF0000" stroke-width="2.2" />
    </g>
    <use href="#half-hearts" transform="rotate(180 83.543 121.333)" />
    <rect x="14" y="119" width="139" height="5" fill="#FFFFFF" />
    <path d="M14,121.5 L153,121.5" stroke="#15191E" stroke-width="2" />
  </g>
  <g data-corner="tl">
    <text x="8.7754" y="28.0133" font-family="Arial, Helvetica, sans-serif" font-size="32" fill="#DF0000"><tspan>J</tspan></text>
    <path transform="translate(17.5 44) scale(1.35)" d="M 3.676,-9 C 0.433,-9 0,-5.523 0,-5.523 0,-5.523 -0.433,-9 -3.676,-9 -5.946,-9 -8,-7.441 -8,-4.5 -8,-0.614 -1.4208493,3.2938141 0,9 1.35201,3.2985969 8,-0.614 8,-4.5 8,-7.441 5.946,-9 3.676,-9 z" fill="#DF0000" />
  </g>
  <g data-corner="br" transform="rotate(180 83.543 121.333)">
    <text x="8.7754" y="28.0133" font-family="Arial, Helvetica, sans-serif" font-size="32" fill="#DF0000"><tspan>J</tspan></text>
    <path transform="translate(17.5 44) scale(1.35)" d="M 3.676,-9 C 0.433,-9 0,-5.523 0,-5.523 0,-5.523 -0.433,-9 -3.676,-9 -5.946,-9 -8,-7.441 -8,-4.5 -8,-0.614 -1.4208493,3.2938141 0,9 1.35201,3.2985969 8,-0.614 8,-4.5 8,-7.441 5.946,-9 3.676,-9 z" fill="#DF0000" />
  </g>
</svg>
